{
    "asset" : {
        "generator" : "Khronos glTF Blender I/O v1.0.5",
        "version" : "2.0"
    },
    "scene" : 0,
    "scenes" : [
        {
            "name" : "Scene",
            "nodes" : [
                0
            ]
        }
    ],
    "nodes" : [
        {
            "mesh" : 0,
            "name" : "skel_head",
            "scale" : [
                0.14190123975276947,
                0.14190123975276947,
                0.14190123975276947
            ],
            "translation" : [
                -3.338345766067505,
                1.569807767868042,
                0.10317844152450562
            ]
        }
    ],
    "materials" : [
        {
            "doubleSided" : true,
            "name" : "bone.001",
            "pbrMetallicRoughness" : {}
        },
        {
            "doubleSided" : true,
            "name" : "black.001",
            "pbrMetallicRoughness" : {}
        }
    ],
    "meshes" : [
        {
            "name" : "Cube.002",
            "primitives" : [
                {
                    "attributes" : {
                        "POSITION" : 0,
                        "NORMAL" : 1
                    },
                    "indices" : 2,
                    "material" : 0
                },
                {
                    "attributes" : {
                        "POSITION" : 3,
                        "NORMAL" : 4
                    },
                    "indices" : 5,
                    "material" : 1
                }
            ]
        }
    ],
    "accessors" : [
        {
            "bufferView" : 0,
            "componentType" : 5126,
            "count" : 2976,
            "max" : [
                0.7690788507461548,
                0.8781353235244751,
                0.8627119064331055
            ],
            "min" : [
                -0.7690788507461548,
                -1.803542971611023,
                -0.9293605089187622
            ],
            "type" : "VEC3"
        },
        {
            "bufferView" : 1,
            "componentType" : 5126,
            "count" : 2976,
            "type" : "VEC3"
        },
        {
            "bufferView" : 2,
            "componentType" : 5123,
            "count" : 4656,
            "type" : "SCALAR"
        },
        {
            "bufferView" : 3,
            "componentType" : 5126,
            "count" : 600,
            "max" : [
                0.5928946137428284,
                0.37210941314697266,
                0.7392614483833313
            ],
            "min" : [
                -0.5928946137428284,
                -0.8124918937683105,
                -0.5206104516983032
            ],
            "type" : "VEC3"
        },
        {
            "bufferView" : 4,
            "componentType" : 5126,
            "count" : 600,
            "type" : "VEC3"
        },
        {
            "bufferView" : 5,
            "componentType" : 5123,
            "count" : 648,
            "type" : "SCALAR"
        }
    ],
    "bufferViews" : [
        {
            "buffer" : 0,
            "byteLength" : 35712,
            "byteOffset" : 0
        },
        {
            "buffer" : 0,
            "byteLength" : 35712,
            "byteOffset" : 35712
        },
        {
            "buffer" : 0,
            "byteLength" : 9312,
            "byteOffset" : 71424
        },
        {
            "buffer" : 0,
            "byteLength" : 7200,
            "byteOffset" : 80736
        },
        {
            "buffer" : 0,
            "byteLength" : 7200,
            "byteOffset" : 87936
        },
        {
            "buffer" : 0,
            "byteLength" : 1296,
            "byteOffset" : 95136
        }
    ],
    "buffers" : [
        {
            "byteLength" : 96432,
            "uri" : "data:application/octet-stream;base64,"
        }
    ]
}
